<svg width="37" height="37" viewBox="0 0 37 37" fill="none" xmlns="http://www.w3.org/2000/svg">
<path d="M20.2344 28.9062H21.3906V30.0625H20.2344V28.9062Z" fill="white"/>
<path d="M15.6094 28.9062H16.7656V30.0625H15.6094V28.9062Z" fill="white"/>
<path d="M32.8905 33.0254C32.3982 33.297 31.9728 33.5312 31.0739 33.5312C30.1751 33.5312 29.7497 33.2967 29.2574 33.0254C28.7051 32.7207 28.0791 32.375 26.8823 32.375C25.6855 32.375 25.0596 32.7204 24.5072 33.0254C24.015 33.297 23.5898 33.5312 22.6908 33.5312C21.7918 33.5312 21.3667 33.2967 20.8744 33.0254C20.3221 32.7207 19.6964 32.375 18.4994 32.375C17.3024 32.375 16.6768 32.7204 16.1246 33.0254C15.6323 33.297 15.2071 33.5312 14.3083 33.5312C13.4095 33.5312 12.9842 33.2967 12.4919 33.0254C11.9397 32.7207 11.314 32.375 10.117 32.375C8.91996 32.375 8.29422 32.7204 7.74196 33.0254C7.24969 33.297 6.82419 33.5312 5.92556 33.5312C5.02694 33.5312 4.60151 33.2967 4.10924 33.0254C3.55699 32.7207 2.93131 32.375 1.73438 32.375V33.5312C2.63321 33.5312 3.05843 33.7658 3.5507 34.0371C4.10295 34.3418 4.72863 34.6875 5.92556 34.6875C7.1225 34.6875 7.74832 34.3421 8.30057 34.0371C8.79285 33.7655 9.21835 33.5312 10.117 33.5312C11.0156 33.5312 11.441 33.7658 11.9333 34.0371C12.4855 34.3418 13.1116 34.6875 14.3083 34.6875C15.505 34.6875 16.1309 34.3421 16.6831 34.0371C17.1754 33.7655 17.6005 33.5312 18.4994 33.5312C19.3983 33.5312 19.8235 33.7658 20.3158 34.0371C20.8681 34.3418 21.4937 34.6875 22.6908 34.6875C23.8879 34.6875 24.5135 34.3421 25.0658 34.0371C25.5581 33.7655 25.9836 33.5312 26.8823 33.5312C27.781 33.5312 28.2065 33.7658 28.6988 34.0371C29.2512 34.3418 29.8771 34.6875 31.0739 34.6875C32.2707 34.6875 32.8968 34.3421 33.449 34.0371C33.9414 33.7655 34.3668 33.5312 35.2656 33.5312V32.375C34.0688 32.375 33.4428 32.7204 32.8905 33.0254Z" fill="white"/>
<path d="M5.65399 32.5152L6.7757 32.2348L5.92138 28.8174L17.9219 27.2522V31.2188H19.0781V27.2522L31.0786 28.8174L30.2243 32.2348L31.346 32.5152L32.3577 28.4683C32.3775 28.3892 32.3803 28.3069 32.366 28.2266C32.3517 28.1463 32.3206 28.07 32.2747 28.0026C32.2288 27.9352 32.1691 27.8783 32.0997 27.8356C32.0302 27.7929 31.9525 27.7654 31.8717 27.7549L18.5748 26.0205C18.5251 26.014 18.4749 26.014 18.4252 26.0205L5.12833 27.7549C5.04749 27.7654 4.96979 27.7929 4.90034 27.8356C4.83089 27.8783 4.77125 27.9352 4.72535 28.0026C4.67945 28.07 4.64832 28.1463 4.634 28.2266C4.61968 28.3069 4.6225 28.3892 4.64228 28.4683L5.65399 32.5152Z" fill="white"/>
<path d="M7.51562 21.3906H17.9219V24.8594H19.0781V21.3906H29.4844V26.5938H30.6406V20.8125C30.6406 20.6592 30.5797 20.5121 30.4713 20.4037C30.3629 20.2953 30.2158 20.2344 30.0625 20.2344H29.4844V14.4531C29.4844 14.2998 29.4235 14.1527 29.315 14.0443C29.2066 13.9359 29.0596 13.875 28.9062 13.875H8.09375C7.94042 13.875 7.79337 13.9359 7.68495 14.0443C7.57653 14.1527 7.51562 14.2998 7.51562 14.4531V20.2344H6.9375C6.78417 20.2344 6.63712 20.2953 6.5287 20.4037C6.42028 20.5121 6.35938 20.6592 6.35938 20.8125V26.5938H7.51562V21.3906ZM15.6094 20.2344V15.0312H21.3906V20.2344H15.6094ZM28.3281 20.2344H22.5469V15.0312H28.3281V20.2344ZM8.67188 15.0312H14.4531V20.2344H8.67188V15.0312Z" fill="white"/>
<path d="M8.67188 22.5469H9.82812V26.0156H8.67188V22.5469Z" fill="white"/>
<path d="M10.9844 22.5469H12.1406V25.4375H10.9844V22.5469Z" fill="white"/>
<path d="M13.2969 22.5469H14.4531V25.4375H13.2969V22.5469Z" fill="white"/>
<path d="M15.6094 22.5469H16.7656V25.4375H15.6094V22.5469Z" fill="white"/>
<path d="M27.1719 22.5469H28.3281V26.0156H27.1719V22.5469Z" fill="white"/>
<path d="M24.8594 22.5469H26.0156V25.4375H24.8594V22.5469Z" fill="white"/>
<path d="M22.5469 22.5469H23.7031V25.4375H22.5469V22.5469Z" fill="white"/>
<path d="M20.2344 22.5469H21.3906V25.4375H20.2344V22.5469Z" fill="white"/>
<path d="M8.67188 10.4062C8.67187 10.5399 8.71817 10.6694 8.8029 10.7728C8.88763 10.8762 9.00556 10.947 9.13662 10.9732L11.5625 11.4583V12.7188H12.7188V9.82812H24.2812V12.7188H25.4375V11.4583L27.8634 10.9732C27.9944 10.947 28.1124 10.8762 28.1971 10.7728C28.2818 10.6694 28.3281 10.5399 28.3281 10.4062V9.25H29.4844V8.09375H28.3281V6.9375C28.3281 6.78417 28.2672 6.63712 28.1588 6.5287C28.0504 6.42028 27.9033 6.35938 27.75 6.35938H22.3601L21.658 4.60433C22.0665 4.54003 22.4386 4.33213 22.7075 4.018C22.9764 3.70388 23.1245 3.30413 23.125 2.89062V1.73438C23.125 1.58105 23.0641 1.434 22.9557 1.32558C22.8473 1.21716 22.7002 1.15625 22.5469 1.15625H14.4531C14.2998 1.15625 14.1527 1.21716 14.0443 1.32558C13.9359 1.434 13.875 1.58105 13.875 1.73438V2.89062C13.8755 3.30413 14.0236 3.70388 14.2925 4.018C14.5614 4.33213 14.9335 4.54003 15.342 4.60433L14.6399 6.35938H9.25C9.09667 6.35938 8.94962 6.42028 8.8412 6.5287C8.73278 6.63712 8.67188 6.78417 8.67188 6.9375V8.09375H7.51562V9.25H8.67188V10.4062ZM15.0312 2.89062V2.3125H21.9688V2.89062C21.9686 3.0439 21.9076 3.19085 21.7992 3.29923C21.6908 3.40761 21.5439 3.46858 21.3906 3.46875H15.6094C15.4561 3.46858 15.3092 3.40761 15.2008 3.29923C15.0924 3.19085 15.0314 3.0439 15.0312 2.89062ZM16.5789 4.625H20.4211L21.1149 6.35938H15.8851L16.5789 4.625ZM9.82812 7.51562H27.1719V9.93226L25.4375 10.2791V9.25C25.4375 9.09667 25.3766 8.94962 25.2682 8.8412C25.1598 8.73278 25.0127 8.67188 24.8594 8.67188H12.1406C11.9873 8.67188 11.8402 8.73278 11.7318 8.8412C11.6234 8.94962 11.5625 9.09667 11.5625 9.25V10.2791L9.82812 9.93226V7.51562Z" fill="white"/>
<path d="M13.8576 10.9857H16.1701V12.1419H13.8576V10.9857Z" fill="white"/>
<path d="M17.3438 10.9844H19.6562V12.1406H17.3438V10.9844Z" fill="white"/>
<path d="M20.8125 10.9844H23.125V12.1406H20.8125V10.9844Z" fill="white"/>
<path d="M9.82812 16.1875H10.9844V19.0781H9.82812V16.1875Z" fill="white"/>
<path d="M12.1406 16.1875H13.2969V19.0781H12.1406V16.1875Z" fill="white"/>
<path d="M16.7656 16.1875H17.9219V19.0781H16.7656V16.1875Z" fill="white"/>
<path d="M19.0781 16.1875H20.2344V19.0781H19.0781V16.1875Z" fill="white"/>
<path d="M23.7031 16.1875H24.8594V19.0781H23.7031V16.1875Z" fill="white"/>
<path d="M26.0156 16.1875H27.1719V19.0781H26.0156V16.1875Z" fill="white"/>
</svg>
