<svg width="37" height="37" viewBox="0 0 37 37" fill="none" xmlns="http://www.w3.org/2000/svg">
<g clip-path="url(#clip0_1771_34569)">
<path d="M32.3596 8.17706C32.1773 6.0471 30.7968 4.66668 28.667 4.4845C28.3712 4.45921 28.111 4.67846 28.0857 4.97417C28.0604 5.26981 28.2797 5.53018 28.5754 5.55548C30.1871 5.69343 31.1507 6.65709 31.2886 8.26869C31.2999 8.4 31.3574 8.51627 31.4439 8.6027C31.5522 8.71088 31.7056 8.77238 31.8699 8.75836C32.1656 8.733 32.3849 8.47277 32.3596 8.17706Z" fill="white"/>
<path d="M35.131 1.71333C34.6242 1.20667 33.9242 0.953817 33.2109 1.019L32.3769 1.09539C29.162 1.39016 26.2275 2.89632 24.1138 5.33665L22.8304 6.81839L19.87 5.59146L20.0284 5.43313C20.4998 4.9616 20.4998 4.19442 20.0284 3.72296L19.1313 2.82557C18.6598 2.35425 17.8926 2.35411 17.4211 2.82557L16.1833 4.06333L14.7601 3.4735L15.1168 3.1168C15.5883 2.64527 15.5883 1.87817 15.1168 1.40671L14.2196 0.509456C13.748 0.0379949 12.9808 0.0381394 12.5094 0.509456L11.0734 1.94552L8.65356 0.942616C7.50648 0.46718 6.19811 0.727409 5.32009 1.60529L3.70943 3.21595C3.36754 3.55784 3.19143 4.0306 3.22626 4.5129C3.2611 4.9952 3.5034 5.43768 3.89082 5.72696L15.9676 14.7414L10.3174 21.2275C10.1231 21.4519 10.1474 21.7913 10.3718 21.9856C10.4734 22.0736 10.5987 22.1168 10.7234 22.1168C10.8739 22.1168 11.0235 22.054 11.1298 21.9313L17.1582 15.0085L19.7626 12.0017L24.9263 6.04023C26.8572 3.81091 29.538 2.43497 32.4751 2.16571L33.309 2.08933C33.7043 2.05312 34.0908 2.1931 34.3709 2.47335C34.6512 2.75352 34.7912 3.14057 34.755 3.53529V4.26921C34.8313 6.30379 32.7309 10.0801 30.9322 11.8231C30.7641 12.0677 30.8261 12.4023 31.0706 12.5705C31.3153 12.7387 31.6498 12.6766 31.818 12.4321C33.561 10.7916 35.3695 7.92866 35.9328 4.50639C35.983 4.20167 35.9328 3.72296 35.9328 3.72296C35.9982 3.00941 35.6376 2.21998 35.131 1.71333ZM18.1811 3.58573C18.2333 3.53327 18.3187 3.53319 18.3711 3.58573L19.2683 4.48291C19.3207 4.53523 19.3207 4.62057 19.2684 4.67289L18.7953 5.14587L18.3589 4.96499L17.258 4.50871L18.1811 3.58573ZM13.2695 1.26955C13.3218 1.21708 13.4071 1.21701 13.4595 1.26955L14.3567 2.16672C14.4091 2.21904 14.4091 2.30432 14.3567 2.35664L13.6854 3.02799L12.1481 2.39089L13.2695 1.26955ZM16.6732 13.9268L4.53377 4.86556C4.39444 4.76164 4.3109 4.60887 4.29832 4.4355C4.28582 4.26214 4.34652 4.09896 4.46952 3.97611L6.08011 2.36553C6.46058 1.98512 6.9655 1.78357 7.48069 1.78357C7.73658 1.78357 7.99514 1.83336 8.24215 1.93569L22.0888 7.67438L16.6732 13.9268Z" fill="white"/>
<path d="M36.6464 22.9364L35.7492 22.0391C35.2776 21.5677 34.5104 21.5678 34.0391 22.0391L33.5948 22.4833L32.9137 20.8397L34.0185 19.7349C34.49 19.2633 34.49 18.4962 34.0185 18.0248L33.1213 17.1274C32.6497 16.656 31.8826 16.6561 31.4112 17.1275L31.3857 17.153L30.0692 13.9763L31.5077 12.7303C31.6139 12.6383 31.7198 12.5434 31.8224 12.4482C32.0402 12.2465 32.0531 11.9064 31.8512 11.6888C31.6496 11.4711 31.3095 11.4583 31.0918 11.66C30.9978 11.7471 30.9011 11.8338 30.804 11.9179L15.1014 25.5188C14.2807 26.2297 13.4259 26.8986 12.5413 27.5245C11.3197 28.3888 10.0287 29.1767 8.70431 29.8664L8.70345 29.8669C8.36127 30.0451 8.01606 30.2177 7.66759 30.384C7.24166 30.5873 6.85598 30.4258 6.63708 30.207C6.41826 29.9881 6.25682 29.6024 6.46003 29.1764C6.63715 28.8052 6.82201 28.4378 7.01272 28.0737C7.08419 27.9372 7.15638 27.8009 7.22995 27.6651C7.2465 27.6345 7.26348 27.6042 7.2801 27.5737C7.3528 27.4405 7.42608 27.3076 7.50073 27.1753C7.51634 27.1476 7.53231 27.12 7.54799 27.0924C7.62466 26.9573 7.70206 26.8226 7.78069 26.6885C7.79528 26.6636 7.8101 26.6389 7.8247 26.614C7.90484 26.4781 7.98585 26.3427 8.06801 26.2078C8.0829 26.1834 8.098 26.1591 8.11296 26.1346C8.19477 26.001 8.27751 25.868 8.3612 25.7355C8.37825 25.7085 8.39545 25.6817 8.41258 25.6547C8.49416 25.5264 8.57662 25.3988 8.65987 25.2716C8.68047 25.2403 8.70113 25.209 8.7218 25.1777C8.80202 25.0561 8.8831 24.9352 8.96483 24.8149C8.98904 24.7793 9.01339 24.7437 9.03775 24.7081C9.11746 24.5918 9.19789 24.4761 9.2789 24.361C9.85507 23.5428 10.4675 22.7499 11.1162 21.9863C11.3083 21.76 11.2807 21.4209 11.0545 21.2287C10.8281 21.0367 10.4891 21.0643 10.2969 21.2905C9.73966 21.9466 9.20844 22.6238 8.7028 23.3191L3.84604 21.1206C2.92971 20.7057 1.83669 20.9048 1.12582 21.6159L0.299026 22.4428C0.0898167 22.652 -0.0182204 22.9414 0.00251984 23.2366C0.0233323 23.5318 0.170899 23.803 0.407352 23.9808L5.81687 28.0495C5.70579 28.2698 5.59624 28.4909 5.48994 28.7136C5.12377 29.4812 5.27574 30.3657 5.87706 30.967C6.26065 31.3507 6.75943 31.5514 7.26962 31.5514C7.55919 31.5514 7.85252 31.4866 8.13045 31.354C8.35325 31.2477 8.57431 31.1382 8.79457 31.0272L12.8633 36.4367C13.0411 36.6731 13.3123 36.8207 13.6075 36.8415C13.6315 36.8432 13.6554 36.844 13.6794 36.844C13.9492 36.844 14.2089 36.7372 14.4012 36.5449L15.2278 35.7182C15.9389 35.0073 16.138 33.914 15.7233 32.998L13.5251 28.1419C14.3097 27.5713 15.0705 26.9674 15.8051 26.3312L22.118 20.8632L31.2174 33.0536C31.5066 33.4412 31.9492 33.6834 32.4315 33.7182C32.4717 33.7211 32.5117 33.7225 32.5518 33.7225C32.9916 33.7225 33.415 33.5484 33.7285 33.2349L35.339 31.6244C36.217 30.7465 36.4771 29.438 36.0018 28.291L35.1228 26.1702L36.6465 24.6465C37.1179 24.175 37.1179 23.4079 36.6464 22.9364ZM1.10291 23.159L1.88591 22.3761C2.28236 21.9796 2.89199 21.8686 3.40276 22.0999L8.07314 24.2141C8.0631 24.2288 8.05327 24.2439 8.0433 24.2586C7.98498 24.3448 7.9271 24.4312 7.8695 24.5178C7.84146 24.56 7.81364 24.6025 7.78582 24.6448C7.58998 24.9427 7.39876 25.2435 7.21224 25.5473C7.18897 25.5853 7.16556 25.6231 7.14244 25.6611C7.0873 25.7517 7.03266 25.8426 6.97839 25.9337C6.95028 25.9809 6.92246 26.0281 6.89464 26.0754C6.84224 26.1643 6.78992 26.2531 6.73833 26.3425C6.71202 26.388 6.6863 26.4338 6.66021 26.4794C6.57486 26.6288 6.49067 26.7788 6.40757 26.9295C6.37909 26.9812 6.35012 27.0327 6.32193 27.0844L1.10291 23.159ZM14.7442 33.4413C14.9754 33.9521 14.8645 34.5617 14.4679 34.9582L13.685 35.7411L9.75961 30.5221C9.84416 30.4761 9.92828 30.4292 10.0125 30.3823C10.1327 30.3156 10.2525 30.248 10.3718 30.1798C10.4282 30.1475 10.4846 30.1154 10.5408 30.0829C10.6307 30.0308 10.7202 29.9784 10.8096 29.9255C10.8544 29.8991 10.8989 29.8724 10.9436 29.8457C11.2516 29.6617 11.5566 29.4729 11.8587 29.2794C11.8982 29.2541 11.9377 29.2288 11.9771 29.2034C12.0704 29.1431 12.1635 29.0824 12.2562 29.0211C12.2935 28.9966 12.3305 28.9716 12.3676 28.9469C12.4553 28.8885 12.5432 28.8306 12.6303 28.7715L14.7442 33.4413ZM32.1711 17.8876C32.2234 17.8351 32.3087 17.8351 32.3611 17.8875L33.2583 18.7849C33.3107 18.8372 33.3107 18.9225 33.2583 18.9748L32.4681 19.765L31.984 18.5967L31.831 18.2276L32.1711 17.8876ZM34.5789 30.8643L32.9683 32.4749C32.8455 32.5978 32.6825 32.6579 32.5089 32.6462C32.3355 32.6337 32.1828 32.55 32.0788 32.4108L22.9327 20.1576L24.8496 18.4972L29.2129 14.718L35.0088 28.7024C35.3171 29.4463 35.1484 30.295 34.5789 30.8643ZM35.8863 23.8864L34.6774 25.0954L34.0402 23.558L34.7991 22.7991C34.8514 22.7467 34.9367 22.7467 34.9891 22.7991L35.8863 23.6963C35.9387 23.7487 35.9387 23.8341 35.8863 23.8864Z" fill="white"/>
</g>
<defs>
<clipPath id="clip0_1771_34569">
<rect width="37" height="37" fill="white"/>
</clipPath>
</defs>
</svg>
