<svg width="20" height="20" viewBox="0 0 20 20" fill="none" xmlns="http://www.w3.org/2000/svg">
<g clip-path="url(#clip0_2195_782)">
<path d="M14.9722 0.00793457H5.0119C2.25218 0.00793457 0 2.26012 0 5.01983V14.996C0 17.7399 2.25218 19.9921 5.0119 19.9921H14.9881C17.7478 19.9921 20 17.7399 20 14.9802V5.01983C19.9841 2.26012 17.732 0.00793457 14.9722 0.00793457ZM6.66138 16.1856H3.8065V7.93815H6.66138V16.1856ZM5.21808 6.66931C4.4092 6.66931 3.75892 6.01904 3.75892 5.21016C3.75892 4.40127 4.4092 3.751 5.21808 3.751C6.02696 3.751 6.67724 4.40127 6.67724 5.21016C6.66138 6.01904 6.0111 6.66931 5.21808 6.66931ZM16.1935 16.1856H16.1776H13.7986V12.1887C13.7986 11.2213 13.6717 9.98414 12.3553 9.98414C11.0071 9.98414 10.7851 11.0309 10.7851 12.1253V16.1856H8.40603V7.93815H10.6265V9.04838H10.6899C11.0389 8.41396 11.8477 7.92229 13.1166 7.92229C15.7335 7.92229 16.1935 9.42903 16.1935 11.6654V16.1856Z" fill="white"/>
</g>
<defs>
<clipPath id="clip0_2195_782">
<rect width="20" height="20" fill="white"/>
</clipPath>
</defs>
</svg>
